<?xml version="1.0" encoding="UTF-8"?>
<!--Generator: Apple Native CoreSVG 175-->
<!DOCTYPE svg
PUBLIC "-//W3C//DTD SVG 1.1//EN"
       "http://www.w3.org/Graphics/SVG/1.1/DTD/svg11.dtd">
<svg version="1.1" xmlns="http://www.w3.org/2000/svg" xmlns:xlink="http://www.w3.org/1999/xlink" width="3300" height="2200">
 <!--glyph: "", point size: 100.0, font version: "17.0d12e1", template writer version: "65.1"-->
 <g id="Notes">
  <rect height="2200" id="artboard" style="fill:white;opacity:1" width="3300" x="0" y="0"/>
  <line style="fill:none;stroke:black;opacity:1;stroke-width:0.5;" x1="263" x2="3036" y1="292" y2="292"/>
  <text style="stroke:none;fill:black;font-family:sans-serif;font-size:13;font-weight:bold;" transform="matrix(1 0 0 1 263 322)">Weight/Scale Variations</text>
  <text style="stroke:none;fill:black;font-family:sans-serif;font-size:13;text-anchor:middle;" transform="matrix(1 0 0 1 559.711 322)">Ultralight</text>
  <text style="stroke:none;fill:black;font-family:sans-serif;font-size:13;text-anchor:middle;" transform="matrix(1 0 0 1 856.422 322)">Thin</text>
  <text style="stroke:none;fill:black;font-family:sans-serif;font-size:13;text-anchor:middle;" transform="matrix(1 0 0 1 1153.13 322)">Light</text>
  <text style="stroke:none;fill:black;font-family:sans-serif;font-size:13;text-anchor:middle;" transform="matrix(1 0 0 1 1449.84 322)">Regular</text>
  <text style="stroke:none;fill:black;font-family:sans-serif;font-size:13;text-anchor:middle;" transform="matrix(1 0 0 1 1746.56 322)">Medium</text>
  <text style="stroke:none;fill:black;font-family:sans-serif;font-size:13;text-anchor:middle;" transform="matrix(1 0 0 1 2043.27 322)">Semibold</text>
  <text style="stroke:none;fill:black;font-family:sans-serif;font-size:13;text-anchor:middle;" transform="matrix(1 0 0 1 2339.98 322)">Bold</text>
  <text style="stroke:none;fill:black;font-family:sans-serif;font-size:13;text-anchor:middle;" transform="matrix(1 0 0 1 2636.69 322)">Heavy</text>
  <text style="stroke:none;fill:black;font-family:sans-serif;font-size:13;text-anchor:middle;" transform="matrix(1 0 0 1 2933.4 322)">Black</text>
  <line style="fill:none;stroke:black;opacity:1;stroke-width:0.5;" x1="263" x2="3036" y1="1903" y2="1903"/>
  <g transform="matrix(1 0 0 1 263 1933)">
   <path d="M9.24805 0.830078Q10.8691 0.830078 12.2949 0.214844Q13.7207-0.400391 14.8096-1.49414Q15.8984-2.58789 16.5186-4.01367Q17.1387-5.43945 17.1387-7.05078Q17.1387-8.66211 16.5186-10.0879Q15.8984-11.5137 14.8047-12.6074Q13.7109-13.7012 12.2852-14.3164Q10.8594-14.9316 9.23828-14.9316Q7.62695-14.9316 6.20117-14.3164Q4.77539-13.7012 3.69141-12.6074Q2.60742-11.5137 1.9873-10.0879Q1.36719-8.66211 1.36719-7.05078Q1.36719-5.43945 1.9873-4.01367Q2.60742-2.58789 3.69629-1.49414Q4.78516-0.400391 6.21094 0.214844Q7.63672 0.830078 9.24805 0.830078ZM9.24805-0.654297Q7.91992-0.654297 6.7627-1.14746Q5.60547-1.64062 4.73145-2.51953Q3.85742-3.39844 3.36426-4.56055Q2.87109-5.72266 2.87109-7.05078Q2.87109-8.37891 3.35938-9.54102Q3.84766-10.7031 4.72168-11.582Q5.5957-12.4609 6.75293-12.9541Q7.91016-13.4473 9.23828-13.4473Q10.5762-13.4473 11.7334-12.9541Q12.8906-12.4609 13.7695-11.582Q14.6484-10.7031 15.1465-9.54102Q15.6445-8.37891 15.6445-7.05078Q15.6445-5.72266 15.1514-4.56055Q14.6582-3.39844 13.7842-2.51953Q12.9102-1.64062 11.748-1.14746Q10.5859-0.654297 9.24805-0.654297ZM5.6543-7.05078Q5.6543-6.72852 5.85938-6.52832Q6.06445-6.32812 6.40625-6.32812L8.51562-6.32812L8.51562-4.20898Q8.51562-3.88672 8.71094-3.67676Q8.90625-3.4668 9.23828-3.4668Q9.56055-3.4668 9.77051-3.67676Q9.98047-3.88672 9.98047-4.20898L9.98047-6.32812L12.0898-6.32812Q12.4219-6.32812 12.627-6.52832Q12.832-6.72852 12.832-7.05078Q12.832-7.38281 12.627-7.58789Q12.4219-7.79297 12.0898-7.79297L9.98047-7.79297L9.98047-9.90234Q9.98047-10.2344 9.77051-10.4443Q9.56055-10.6543 9.23828-10.6543Q8.90625-10.6543 8.71094-10.4443Q8.51562-10.2344 8.51562-9.90234L8.51562-7.79297L6.40625-7.79297Q6.06445-7.79297 5.85938-7.58789Q5.6543-7.38281 5.6543-7.05078Z"/>
  </g>
  <g transform="matrix(1 0 0 1 281.867 1933)">
   <path d="M11.709 2.91016Q13.75 2.91016 15.5518 2.12891Q17.3535 1.34766 18.7305-0.0292969Q20.1074-1.40625 20.8887-3.20801Q21.6699-5.00977 21.6699-7.05078Q21.6699-9.0918 20.8887-10.8936Q20.1074-12.6953 18.7305-14.0723Q17.3535-15.4492 15.5469-16.2305Q13.7402-17.0117 11.6992-17.0117Q9.6582-17.0117 7.85645-16.2305Q6.05469-15.4492 4.68262-14.0723Q3.31055-12.6953 2.5293-10.8936Q1.74805-9.0918 1.74805-7.05078Q1.74805-5.00977 2.5293-3.20801Q3.31055-1.40625 4.6875-0.0292969Q6.06445 1.34766 7.86621 2.12891Q9.66797 2.91016 11.709 2.91016ZM11.709 1.25Q9.98047 1.25 8.47656 0.605469Q6.97266-0.0390625 5.83496-1.17676Q4.69727-2.31445 4.05762-3.81836Q3.41797-5.32227 3.41797-7.05078Q3.41797-8.7793 4.05762-10.2832Q4.69727-11.7871 5.83008-12.9297Q6.96289-14.0723 8.4668-14.7119Q9.9707-15.3516 11.6992-15.3516Q13.4277-15.3516 14.9316-14.7119Q16.4355-14.0723 17.5781-12.9297Q18.7207-11.7871 19.3652-10.2832Q20.0098-8.7793 20.0098-7.05078Q20.0098-5.32227 19.3701-3.81836Q18.7305-2.31445 17.5928-1.17676Q16.4551-0.0390625 14.9463 0.605469Q13.4375 1.25 11.709 1.25ZM7.17773-7.05078Q7.17773-6.69922 7.41211-6.47461Q7.64648-6.25 8.01758-6.25L10.8887-6.25L10.8887-3.36914Q10.8887-2.99805 11.1133-2.76855Q11.3379-2.53906 11.6895-2.53906Q12.0605-2.53906 12.29-2.76855Q12.5195-2.99805 12.5195-3.36914L12.5195-6.25L15.4004-6.25Q15.7715-6.25 16.001-6.47461Q16.2305-6.69922 16.2305-7.05078Q16.2305-7.42188 16.001-7.65137Q15.7715-7.88086 15.4004-7.88086L12.5195-7.88086L12.5195-10.752Q12.5195-11.1328 12.29-11.3623Q12.0605-11.5918 11.6895-11.5918Q11.3379-11.5918 11.1133-11.3574Q10.8887-11.123 10.8887-10.752L10.8887-7.88086L8.01758-7.88086Q7.63672-7.88086 7.40723-7.65137Q7.17773-7.42188 7.17773-7.05078Z"/>
  </g>
  <g transform="matrix(1 0 0 1 305.646 1933)">
   <path d="M14.9707 5.66406Q17.0605 5.66406 18.96 5.01465Q20.8594 4.36523 22.4512 3.19336Q24.043 2.02148 25.2197 0.429688Q26.3965-1.16211 27.0459-3.06641Q27.6953-4.9707 27.6953-7.05078Q27.6953-9.14062 27.0459-11.04Q26.3965-12.9395 25.2197-14.5312Q24.043-16.123 22.4512-17.2998Q20.8594-18.4766 18.9551-19.126Q17.0508-19.7754 14.9609-19.7754Q12.8711-19.7754 10.9717-19.126Q9.07227-18.4766 7.48535-17.2998Q5.89844-16.123 4.72168-14.5312Q3.54492-12.9395 2.90039-11.04Q2.25586-9.14062 2.25586-7.05078Q2.25586-4.9707 2.90527-3.06641Q3.55469-1.16211 4.72656 0.429688Q5.89844 2.02148 7.49023 3.19336Q9.08203 4.36523 10.9814 5.01465Q12.8809 5.66406 14.9707 5.66406ZM14.9707 3.84766Q13.1641 3.84766 11.5283 3.2959Q9.89258 2.74414 8.53516 1.74805Q7.17773 0.751953 6.17676-0.610352Q5.17578-1.97266 4.62891-3.6084Q4.08203-5.24414 4.08203-7.05078Q4.08203-8.86719 4.62891-10.5029Q5.17578-12.1387 6.17188-13.501Q7.16797-14.8633 8.52539-15.8594Q9.88281-16.8555 11.5186-17.4023Q13.1543-17.9492 14.9609-17.9492Q16.7773-17.9492 18.4131-17.4023Q20.0488-16.8555 21.4111-15.8594Q22.7734-14.8633 23.7695-13.501Q24.7656-12.1387 25.3174-10.5029Q25.8691-8.86719 25.8691-7.05078Q25.8789-5.24414 25.332-3.6084Q24.7852-1.97266 23.7842-0.610352Q22.7832 0.751953 21.4209 1.74805Q20.0586 2.74414 18.4229 3.2959Q16.7871 3.84766 14.9707 3.84766ZM9.19922-7.05078Q9.19922-6.66992 9.45801-6.4209Q9.7168-6.17188 10.1172-6.17188L14.0625-6.17188L14.0625-2.2168Q14.0625-1.81641 14.3115-1.55762Q14.5605-1.29883 14.9512-1.29883Q15.3516-1.29883 15.6104-1.55273Q15.8691-1.80664 15.8691-2.2168L15.8691-6.17188L19.8242-6.17188Q20.2246-6.17188 20.4785-6.4209Q20.7324-6.66992 20.7324-7.05078Q20.7324-7.46094 20.4785-7.71484Q20.2246-7.96875 19.8242-7.96875L15.8691-7.96875L15.8691-11.9141Q15.8691-12.3242 15.6104-12.583Q15.3516-12.8418 14.9512-12.8418Q14.5605-12.8418 14.3115-12.583Q14.0625-12.3242 14.0625-11.9141L14.0625-7.96875L10.1172-7.96875Q9.70703-7.96875 9.45312-7.71484Q9.19922-7.46094 9.19922-7.05078Z"/>
  </g>
  <text style="stroke:none;fill:black;font-family:sans-serif;font-size:13;font-weight:bold;" transform="matrix(1 0 0 1 263 1953)">Design Variations</text>
  <text style="stroke:none;fill:black;font-family:sans-serif;font-size:13;" transform="matrix(1 0 0 1 263 1971)">Symbols are supported in up to nine weights and three scales.</text>
  <text style="stroke:none;fill:black;font-family:sans-serif;font-size:13;" transform="matrix(1 0 0 1 263 1989)">For optimal layout with text and other symbols, vertically align</text>
  <text style="stroke:none;fill:black;font-family:sans-serif;font-size:13;" transform="matrix(1 0 0 1 263 2007)">symbols with the adjacent text.</text>
  <line style="fill:none;stroke:#00AEEF;stroke-width:0.5;opacity:1.0;" x1="776" x2="776" y1="1919" y2="1933"/>
  <g transform="matrix(1 0 0 1 776 1933)">
   <path d="M3.31055 0.15625Q3.70117 0.15625 3.91602-0.00976562Q4.13086-0.175781 4.26758-0.585938L5.52734-4.0332L11.2891-4.0332L12.5488-0.585938Q12.6855-0.175781 12.9004-0.00976562Q13.1152 0.15625 13.4961 0.15625Q13.8867 0.15625 14.1162-0.0585938Q14.3457-0.273438 14.3457-0.644531Q14.3457-0.869141 14.2383-1.17188L9.6582-13.3691Q9.48242-13.8184 9.17969-14.043Q8.87695-14.2676 8.4082-14.2676Q7.5-14.2676 7.17773-13.3789L2.59766-1.16211Q2.49023-0.859375 2.49023-0.634766Q2.49023-0.263672 2.70996-0.0537109Q2.92969 0.15625 3.31055 0.15625ZM6.00586-5.51758L8.37891-12.0898L8.42773-12.0898L10.8008-5.51758Z"/>
  </g>
  <line style="fill:none;stroke:#00AEEF;stroke-width:0.5;opacity:1.0;" x1="793.197" x2="793.197" y1="1919" y2="1933"/>
  <text style="stroke:none;fill:black;font-family:sans-serif;font-size:13;font-weight:bold;" transform="matrix(1 0 0 1 776 1953)">Margins</text>
  <text style="stroke:none;fill:black;font-family:sans-serif;font-size:13;" transform="matrix(1 0 0 1 776 1971)">Leading and trailing margins on the left and right side of each symbol</text>
  <text style="stroke:none;fill:black;font-family:sans-serif;font-size:13;" transform="matrix(1 0 0 1 776 1989)">can be adjusted by modifying the x-location of the margin guidelines.</text>
  <text style="stroke:none;fill:black;font-family:sans-serif;font-size:13;" transform="matrix(1 0 0 1 776 2007)">Modifications are automatically applied proportionally to all</text>
  <text style="stroke:none;fill:black;font-family:sans-serif;font-size:13;" transform="matrix(1 0 0 1 776 2025)">scales and weights.</text>
  <g transform="matrix(1 0 0 1 1289 1933)">
   <path d="M2.8418 1.86523L4.54102 3.57422Q5.18555 4.22852 5.90332 4.17969Q6.62109 4.13086 7.31445 3.35938L18.0078-8.42773L17.041-9.4043L6.42578 2.27539Q6.16211 2.57812 5.89355 2.61719Q5.625 2.65625 5.27344 2.30469L4.10156 1.14258Q3.75 0.791016 3.79395 0.522461Q3.83789 0.253906 4.14062-0.0195312L15.6152-10.8203L14.6387-11.7871L3.04688-0.898438Q2.30469-0.214844 2.25098 0.498047Q2.19727 1.21094 2.8418 1.86523ZM9.25781-16.3281Q8.94531-16.0254 8.90625-15.6348Q8.86719-15.2441 9.04297-14.9512Q9.21875-14.6777 9.55566-14.541Q9.89258-14.4043 10.3809-14.5215Q11.4746-14.7754 12.5977-14.7314Q13.7207-14.6875 14.7949-13.9844L14.209-12.5293Q13.9551-11.9043 14.0674-11.4404Q14.1797-10.9766 14.5801-10.5664L16.875-8.25195Q17.2363-7.88086 17.5781-7.82227Q17.9199-7.76367 18.3398-7.8418L19.4043-8.03711L20.0684-7.36328L20.0293-6.80664Q20-6.43555 20.1221-6.12305Q20.2441-5.81055 20.6055-5.44922L21.3672-4.70703Q21.7285-4.3457 22.1533-4.33105Q22.5781-4.31641 22.9297-4.66797L25.8398-7.58789Q26.1914-7.93945 26.1816-8.35449Q26.1719-8.76953 25.8105-9.13086L25.0391-9.89258Q24.6875-10.2539 24.3799-10.3857Q24.0723-10.5176 23.7109-10.4883L23.1348-10.4395L22.4902-11.0742L22.7344-12.1973Q22.832-12.6172 22.6953-12.9834Q22.5586-13.3496 22.1191-13.7891L19.9219-15.9766Q18.6719-17.2168 17.2607-17.8369Q15.8496-18.457 14.4189-18.4814Q12.9883-18.5059 11.665-17.959Q10.3418-17.4121 9.25781-16.3281ZM10.752-15.957Q11.6602-16.6211 12.7002-16.9043Q13.7402-17.1875 14.8047-17.085Q15.8691-16.9824 16.8701-16.5137Q17.8711-16.0449 18.7012-15.2051L21.1328-12.793Q21.3086-12.6172 21.3525-12.4512Q21.3965-12.2852 21.3379-12.0312L21.0156-10.5469L22.5195-9.0625L23.5059-9.12109Q23.6914-9.13086 23.7891-9.09668Q23.8867-9.0625 24.0332-8.91602L24.6094-8.33984L22.168-5.89844L21.5918-6.47461Q21.4453-6.62109 21.4062-6.71875Q21.3672-6.81641 21.377-7.01172L21.4453-7.98828L19.9512-9.47266L18.4277-9.21875Q18.1836-9.16992 18.042-9.2041Q17.9004-9.23828 17.7148-9.41406L15.7129-11.416Q15.5176-11.5918 15.4932-11.7529Q15.4688-11.9141 15.5859-12.1875L16.4648-14.2773Q15.293-15.3711 13.8281-15.791Q12.3633-16.2109 10.8398-15.7617Q10.7227-15.7324 10.6885-15.8057Q10.6543-15.8789 10.752-15.957Z"/>
  </g>
  <text style="stroke:none;fill:black;font-family:sans-serif;font-size:13;font-weight:bold;" transform="matrix(1 0 0 1 1289 1953)">Exporting</text>
  <text style="stroke:none;fill:black;font-family:sans-serif;font-size:13;" transform="matrix(1 0 0 1 1289 1971)">Symbols should be outlined when exporting to ensure the</text>
  <text style="stroke:none;fill:black;font-family:sans-serif;font-size:13;" transform="matrix(1 0 0 1 1289 1989)">design is preserved when submitting to Xcode.</text>
  <text id="template-version" style="stroke:none;fill:black;font-family:sans-serif;font-size:13;text-anchor:end;" transform="matrix(1 0 0 1 3036 1933)">Template v.3.0</text>
  <text style="stroke:none;fill:black;font-family:sans-serif;font-size:13;text-anchor:end;" transform="matrix(1 0 0 1 3036 1951)">Requires Xcode 13 or greater</text>
  <text id="descriptive-name" style="stroke:none;fill:black;font-family:sans-serif;font-size:13;text-anchor:end;" transform="matrix(1 0 0 1 3036 1969)">Generated from custom.photo.fill.on.rectangle.fill</text>
  <text style="stroke:none;fill:black;font-family:sans-serif;font-size:13;text-anchor:end;" transform="matrix(1 0 0 1 3036 1987)">Typeset at 100 points</text>
  <text style="stroke:none;fill:black;font-family:sans-serif;font-size:13;" transform="matrix(1 0 0 1 263 726)">Small</text>
  <text style="stroke:none;fill:black;font-family:sans-serif;font-size:13;" transform="matrix(1 0 0 1 263 1156)">Medium</text>
  <text style="stroke:none;fill:black;font-family:sans-serif;font-size:13;" transform="matrix(1 0 0 1 263 1586)">Large</text>
 </g>
 <g id="Guides">
  <g id="H-reference" style="fill:#27AAE1;stroke:none;" transform="matrix(1 0 0 1 339 696)">
   <path d="M0.993347 0L3.6377 0L29.3282-67.1326L30.0301-67.1326L30.0301-70.459L28.1227-70.459ZM11.6882-24.4797L46.9818-24.4797L46.2311-26.7288L12.4382-26.7288ZM55.1193 0L57.7637 0L30.6381-70.459L29.4327-70.459L29.4327-67.1326Z"/>
  </g>
  <line id="Baseline-S" style="fill:none;stroke:#27AAE1;opacity:1;stroke-width:0.5;" x1="263" x2="3036" y1="696" y2="696"/>
  <line id="Capline-S" style="fill:none;stroke:#27AAE1;opacity:1;stroke-width:0.5;" x1="263" x2="3036" y1="625.541" y2="625.541"/>
  <g id="H-reference" style="fill:#27AAE1;stroke:none;" transform="matrix(1 0 0 1 339 1126)">
   <path d="M0.993347 0L3.6377 0L29.3282-67.1326L30.0301-67.1326L30.0301-70.459L28.1227-70.459ZM11.6882-24.4797L46.9818-24.4797L46.2311-26.7288L12.4382-26.7288ZM55.1193 0L57.7637 0L30.6381-70.459L29.4327-70.459L29.4327-67.1326Z"/>
  </g>
  <line id="Baseline-M" style="fill:none;stroke:#27AAE1;opacity:1;stroke-width:0.5;" x1="263" x2="3036" y1="1126" y2="1126"/>
  <line id="Capline-M" style="fill:none;stroke:#27AAE1;opacity:1;stroke-width:0.5;" x1="263" x2="3036" y1="1055.54" y2="1055.54"/>
  <g id="H-reference" style="fill:#27AAE1;stroke:none;" transform="matrix(1 0 0 1 339 1556)">
   <path d="M0.993347 0L3.6377 0L29.3282-67.1326L30.0301-67.1326L30.0301-70.459L28.1227-70.459ZM11.6882-24.4797L46.9818-24.4797L46.2311-26.7288L12.4382-26.7288ZM55.1193 0L57.7637 0L30.6381-70.459L29.4327-70.459L29.4327-67.1326Z"/>
  </g>
  <line id="Baseline-L" style="fill:none;stroke:#27AAE1;opacity:1;stroke-width:0.5;" x1="263" x2="3036" y1="1556" y2="1556"/>
  <line id="Capline-L" style="fill:none;stroke:#27AAE1;opacity:1;stroke-width:0.5;" x1="263" x2="3036" y1="1485.54" y2="1485.54"/>
  <line id="left-margin-Regular-M" style="fill:none;stroke:#00AEEF;stroke-width:0.5;opacity:1.0;" x1="1376.67" x2="1376.67" y1="1030.78" y2="1150.12"/>
  <line id="right-margin-Regular-M" style="fill:none;stroke:#00AEEF;stroke-width:0.5;opacity:1.0;" x1="1523.01" x2="1523.01" y1="1030.78" y2="1150.12"/>
 </g>
 <g id="Symbols">
  <g id="Black-L" transform="matrix(1 0 0 1 2833.53 1556)">
   <path d="M101.957-17.9758Q96.6609-17.9758 92.8762-21.7716Q89.0915-25.5674 89.0915-30.8852Q89.0915-36.1588 92.8762-39.926Q96.6609-43.6932 101.957-43.6932Q107.273-43.6932 111.019-39.926Q114.765-36.1588 114.765-30.8852Q114.765-25.5674 111.019-21.7716Q107.273-17.9758 101.957-17.9758ZM76.9552 15.4566Q73.7471 15.4566 72.0898 13.8974Q70.4326 12.3381 70.4326 8.89364L70.4326 3.6538L82.6211-7.44911Q84.1203-8.74702 85.8013-9.39539Q87.4824-10.0438 89.142-10.0438Q90.9236-10.0438 92.6481-9.39479Q94.3726-8.74581 95.8509-7.36874L104.947 0.862287L127.601-19.1611Q129.304-20.6199 131.191-21.329Q133.078-22.0381 134.985-22.0381Q137.07-22.0381 138.922-21.318Q140.774-20.5979 142.374-19.139L163.665 0.619198L163.665 8.89364Q163.665 12.3381 162.035 13.8974Q160.405 15.4566 157.144 15.4566ZM74.2245 35.3196L159.875 35.3196Q171.242 35.3196 177.444 29.1274Q183.647 22.9352 183.647 11.6313L183.647-49.6856Q183.647-61.0103 177.444-67.1922Q171.242-73.374 159.875-73.374L74.2245-73.374Q62.8556-73.374 56.6542-67.1928Q50.4528-61.0115 50.4528-49.6856L50.4528 11.6313Q50.4528 22.9584 56.6542 29.139Q62.8556 35.3196 74.2245 35.3196ZM74.2245-84.6411L149.07-84.6411L149.07-84.8323Q148.369-95.0473 142.284-100.568Q136.2-106.088 125.415-106.088L39.8556-106.088Q28.4869-106.088 22.2854-99.8974Q16.084-93.7064 16.084-82.3792L16.084-21.0832Q16.084-10.0481 21.935-3.92584Q27.7859 2.19637 38.5707 2.54673L39.1857 2.54673L39.1857-49.6856Q39.1857-60.3753 43.497-68.2073Q47.8084-76.0392 55.6799-80.3401Q63.5515-84.6411 74.2245-84.6411Z"/>
  </g>
  <g id="Heavy-L" transform="matrix(1 0 0 1 2538.18 1556)">
   <path d="M99.5249-18.8675Q94.1789-18.8675 90.3622-22.7021Q86.5455-26.5368 86.5455-31.9186Q86.5455-37.2287 90.3622-41.0438Q94.1789-44.8589 99.5249-44.8589Q104.901-44.8589 108.683-41.0438Q112.465-37.2287 112.465-31.9186Q112.465-26.5368 108.683-22.7021Q104.901-18.8675 99.5249-18.8675ZM74.4757 16.2094Q70.8682 16.2094 68.9834 14.4067Q67.0987 12.6039 67.0987 8.77777L67.0987 3.53233L79.8852-8.00714Q81.4672-9.37346 83.1667-10.0538Q84.8663-10.7342 86.5799-10.7342Q88.4343-10.7342 90.2027-10.051Q91.9709-9.36782 93.5226-7.92676L102.854 0.515957L126.173-20.0962Q127.953-21.6235 129.891-22.3596Q131.828-23.0958 133.84-23.0958Q135.997-23.0958 137.932-22.3417Q139.866-21.5876 141.529-20.0604L163.435 0.347022L163.435 8.77777Q163.435 12.6039 161.564 14.4067Q159.693 16.2094 156.063 16.2094ZM72.3514 33.615L158.188 33.615Q169.161 33.615 175.048 27.7401Q180.936 21.8652 180.936 10.9882L180.936-49.9252Q180.936-60.8323 175.048-66.6922Q169.161-72.5519 158.188-72.5519L72.3514-72.5519Q61.3726-72.5519 55.4883-66.6949Q49.6039-60.8379 49.6039-49.9252L49.6039 10.9882Q49.6039 21.9067 55.4883 27.7608Q61.3726 33.615 72.3514 33.615ZM72.3514-83.108L147.035-83.108L147.035-83.5326Q146.5-93.592 140.705-98.9536Q134.91-104.315 124.377-104.315L38.8315-104.315Q27.8527-104.315 21.9683-98.4461Q16.084-92.5769 16.084-81.6584L16.084-20.7753Q16.084-10.08 21.7006-4.27036Q27.3171 1.53918 37.8498 1.80685L39.0478 1.80685L39.0478-49.9252Q39.0478-60.1339 43.1157-67.5682Q47.1836-75.0024 54.6552-79.0552Q62.1269-83.108 72.3514-83.108Z"/>
  </g>
  <g id="Bold-L" transform="matrix(1 0 0 1 2243.12 1556)">
   <path d="M96.6171-19.9291Q91.2097-19.9291 87.3546-23.81Q83.4993-27.691 83.4993-33.1496Q83.4993-38.5058 87.3546-42.3785Q91.2097-46.2513 96.6171-46.2513Q102.062-46.2513 105.891-42.3785Q109.719-38.5058 109.719-33.1496Q109.719-27.691 105.891-23.81Q102.062-19.9291 96.6171-19.9291ZM71.4022 17.1319Q67.273 17.1319 65.1003 15.0219Q62.9275 12.9119 62.9275 8.59464L62.9275 3.56509L76.5786-8.66883Q78.253-10.1197 79.9719-10.8386Q81.6908-11.5574 83.481-11.5574Q85.4276-11.5574 87.2422-10.8319Q89.0568-10.1064 90.6932-8.58846L100.272 0.0857267L124.354-21.1744Q126.233-22.7863 128.229-23.5606Q130.224-24.3351 132.367-24.3351Q134.623-24.3351 136.654-23.535Q138.685-22.735 140.432-21.1232L163.188 0.128223L163.188 8.59464Q163.188 12.9119 161.01 15.0219Q158.832 17.1319 154.726 17.1319ZM69.9564 31.5019L156.172 31.5019Q166.624 31.5019 172.126 26.0115Q177.63 20.521 177.63 10.1966L177.63-50.3216Q177.63-60.6841 172.126-66.1556Q166.624-71.6269 156.172-71.6269L69.9564-71.6269Q59.4914-71.6269 53.9953-66.1621Q48.4991-60.6972 48.4991-50.3216L48.4991 10.1966Q48.4991 20.5856 53.9953 26.0437Q59.4914 31.5019 69.9564 31.5019ZM69.9564-81.2324L144.538-81.2324L144.538-82.001Q144.187-91.8087 138.749-96.9632Q133.312-102.118 123.139-102.118L37.5412-102.118Q27.0763-102.118 21.5801-96.6406Q16.084-91.1635 16.084-80.7745L16.084-20.2943Q16.084-10.0514 21.4049-4.62231Q26.7258 0.806719 36.8988 0.981897L38.8936 0.981897L38.8936-50.3216Q38.8936-59.9013 42.6542-66.8252Q46.4149-73.749 53.3724-77.4907Q60.3299-81.2324 69.9564-81.2324Z"/>
  </g>
  <g id="Semibold-L" transform="matrix(1 0 0 1 1947.55 1556)">
   <path d="M94.6125-20.661Q89.1627-20.661 85.2811-24.5738Q81.3994-28.4866 81.3994-33.9982Q81.3994-39.3862 85.2811-43.2987Q89.1627-47.2112 94.6125-47.2112Q100.106-47.2112 103.965-43.2987Q107.826-39.3862 107.826-33.9982Q107.826-28.4866 103.965-24.5738Q100.106-20.661 94.6125-20.661ZM69.2833 17.7678Q64.7945 17.7678 62.4233 15.446Q60.052 13.1243 60.052 8.46839L60.052 3.58768L74.299-9.125Q76.0372-10.6342 77.7694-11.3796Q79.5017-12.1249 81.3446-12.1249Q83.3547-12.1249 85.2013-11.3703Q87.0478-10.6156 88.7426-9.04462L98.4922-0.210872L123.1-21.9177Q125.048-23.5879 127.083-24.3886Q129.118-25.1895 131.351-25.1895Q133.676-25.1895 135.773-24.3577Q137.87-23.5259 139.676-21.8558L163.017-0.022616L163.017 8.46839Q163.017 13.1243 160.628 15.446Q158.238 17.7678 153.805 17.7678ZM68.3053 30.0452L154.783 30.0452Q164.875 30.0452 170.112 24.8198Q175.351 19.5944 175.351 9.6509L175.351-50.595Q175.351-60.5819 170.112-65.7856Q164.875-70.9892 154.783-70.9892L68.3053-70.9892Q58.1945-70.9892 52.966-65.7948Q47.7375-60.6002 47.7375-50.595L47.7375 9.6509Q47.7375 19.6749 52.966 24.86Q58.1945 30.0452 68.3053 30.0452ZM68.3053-79.9394L142.815-79.9394L142.815-80.9452Q142.593-90.5794 137.401-95.591Q132.21-100.603 122.285-100.603L36.6518-100.603Q26.5411-100.603 21.3125-95.3958Q16.084-90.1892 16.084-80.1651L16.084-19.9628Q16.084-10.0317 21.2011-4.86494Q26.3182 0.301764 36.2432 0.413178L38.7873 0.413178L38.7873-50.595Q38.7873-59.7409 42.3361-66.3129Q45.8851-72.8849 52.488-76.4122Q59.0911-79.9394 68.3053-79.9394Z"/>
  </g>
  <g id="Medium-L" transform="matrix(1 0 0 1 1651.7 1556)">
   <path d="M93.0926-21.216Q87.6106-21.216 83.7089-25.1529Q79.8071-29.0899 79.8071-34.6417Q79.8071-40.0537 83.7089-43.9964Q87.6106-47.939 93.0926-47.939Q98.6218-47.939 102.506-43.9964Q106.39-40.0537 106.39-34.6417Q106.39-29.0899 102.506-25.1529Q98.6218-21.216 93.0926-21.216ZM67.6767 18.25Q62.9151 18.25 60.3934 15.7676Q57.8716 13.2853 57.8716 8.37266L57.8716 3.6048L72.5705-9.47088Q74.3571-11.0243 76.0994-11.7898Q77.8418-12.5553 79.7247-12.5553Q81.783-12.5553 83.6538-11.7785Q85.5246-11.0017 87.2636-9.39051L97.1424-0.435765L122.148-22.4814Q124.149-24.1957 126.214-25.0165Q128.279-25.8373 130.581-25.8373Q132.958-25.8373 135.105-24.9815Q137.252-24.1257 139.102-22.4114L162.888-0.136988L162.888 8.37266Q162.888 13.2853 160.338 15.7676Q157.788 18.25 153.106 18.25ZM67.0533 28.9407L153.729 28.9407Q163.549 28.9407 168.585 23.9162Q173.623 18.8918 173.623 9.23711L173.623-50.8022Q173.623-60.5044 168.585-65.5051Q163.549-70.5057 153.729-70.5057L67.0533-70.5057Q57.2112-70.5057 52.1856-65.5163Q47.1599-60.5267 47.1599-50.8022L47.1599 9.23711Q47.1599 18.9843 52.1856 23.9625Q57.2112 28.9407 67.0533 28.9407ZM67.0533-78.959L141.51-78.959L141.51-80.1446Q141.384-89.6472 136.379-94.5505Q131.374-99.4539 121.637-99.4539L35.9773-99.4539Q26.1352-99.4539 21.1096-94.452Q16.084-89.4503 16.084-79.7031L16.084-19.7114Q16.084-10.0168 21.0465-5.04891Q26.0091-0.0811133 35.746-0.018049L38.7067-0.018049L38.7067-50.8022Q38.7067-59.6193 42.0949-65.9245Q45.4833-72.2297 51.8175-75.5943Q58.1517-78.959 67.0533-78.959Z"/>
  </g>
  <g id="Regular-L" transform="matrix(1 0 0 1 1356.12 1556)">
   <path d="M91.11-21.9398Q85.5862-21.9398 81.6582-25.9083Q77.7302-29.8768 77.7302-35.481Q77.7302-40.9245 81.6582-44.9064Q85.5862-48.8884 91.11-48.8884Q96.6865-48.8884 100.602-44.9064Q104.517-40.9245 104.517-35.481Q104.517-29.8768 100.602-25.9083Q96.6865-21.9398 91.11-21.9398ZM65.5812 18.8789Q60.4639 18.8789 57.7458 16.1871Q55.0276 13.4953 55.0276 8.2478L55.0276 3.62714L70.3159-9.92204Q72.1656-11.5332 73.9211-12.3248Q75.6767-13.1165 77.6118-13.1165Q79.7329-13.1165 81.6353-12.3109Q83.5377-11.5053 85.3345-9.84166L95.3818-0.729104L120.908-23.2165Q122.976-24.9885 125.081-25.8354Q127.186-26.6823 129.576-26.6823Q132.021-26.6823 134.234-25.7952Q136.447-24.908 138.354-23.136L162.72-0.28617L162.72 8.2478Q162.72 13.4953 159.96 16.1871Q157.201 18.8789 152.194 18.8789ZM65.4203 27.4999L152.355 27.4999Q161.819 27.4999 166.594 22.7376Q171.369 17.9753 171.369 8.69739L171.369-51.0725Q171.369-60.4034 166.594-65.1393Q161.819-69.875 152.355-69.875L65.4203-69.875Q55.9286-69.875 51.1677-65.153Q46.4067-60.4308 46.4067-51.0725L46.4067 8.69739Q46.4067 18.0836 51.1677 22.7918Q55.9286 27.4999 65.4203 27.4999ZM65.4203-77.6802L139.807-77.6802L139.807-79.1004Q139.807-88.4314 135.046-93.1934Q130.285-97.9555 120.793-97.9555L35.0976-97.9555Q25.6059-97.9555 20.8449-93.221Q16.084-88.4867 16.084-79.1004L16.084-19.3835Q16.084-9.99732 20.8449-5.28887Q25.6059-0.580519 35.0976-0.580519L38.6016-0.580519L38.6016-51.0725Q38.6016-59.4607 41.7803-65.4179Q44.9592-71.3751 50.9429-74.5276Q56.9265-77.6802 65.4203-77.6802Z"/>
  </g>
  <g id="Light-L" transform="matrix(1 0 0 1 1060.38 1556)">
   <path d="M89.7741-22.3977Q84.2121-22.3977 80.2652-26.3854Q76.318-30.3732 76.318-36.0155Q76.318-41.4972 80.2652-45.5077Q84.2121-49.5182 89.7741-49.5182Q95.3695-49.5182 99.3231-45.5077Q103.277-41.4972 103.277-36.0155Q103.277-30.3732 99.3231-26.3854Q95.3695-22.3977 89.7741-22.3977ZM63.4437 19.4516Q57.7918 19.4516 54.8352 16.5116Q51.8785 13.5716 51.8785 7.86622L51.8785 4.82959L68.56-10.1891Q70.4097-11.8577 72.1557-12.6684Q73.9019-13.4792 75.9515-13.4792Q78.1489-13.4792 80.0322-12.6449Q81.9155-11.8106 83.7312-10.1088L93.6641-1.03436L119.324-23.4454Q121.487-25.2749 123.602-26.1789Q125.716-27.0832 128.202-27.0832Q130.78-27.0832 133.022-26.1388Q135.264-25.1943 137.266-23.365L162.796 0.32468L162.796 7.86622Q162.796 13.5716 159.769 16.5116Q156.743 19.4516 151.278 19.4516ZM63.2828 26.0304L151.439 26.0304Q160.33 26.0304 164.876 21.4779Q169.422 16.9255 169.422 8.18209L169.422-51.9887Q169.422-60.7661 164.876-65.3015Q160.33-69.8368 151.439-69.8368L63.2828-69.8368Q54.3445-69.8368 49.8222-65.3246Q45.2997-60.8124 45.2997-51.9887L45.2997 8.18209Q45.2997 17.053 49.8222 21.5417Q54.3445 26.0304 63.2828 26.0304ZM63.2828-76.5351L138.223-76.5351L138.223-78.547Q138.223-87.3244 133.7-91.8764Q129.178-96.4286 120.239-96.4286L34.067-96.4286Q25.1287-96.4286 20.6064-91.9232Q16.084-87.4179 16.084-78.547L16.084-18.4103Q16.084-9.53942 20.6064-5.05031Q25.1287-0.561269 34.067-0.561269L38.6016-0.561269L38.6016-51.9887Q38.6016-59.7279 41.5322-65.2175Q44.4628-70.7072 49.9695-73.6212Q55.4762-76.5351 63.2828-76.5351Z"/>
  </g>
  <g id="Thin-L" transform="matrix(1 0 0 1 764.956 1556)">
   <path d="M88.0074-23.0034Q82.3949-23.0034 78.4227-27.0164Q74.4503-31.0296 74.4503-36.7225Q74.4503-42.2546 78.4227-46.3028Q82.3949-50.3511 88.0074-50.3511Q93.6278-50.3511 97.6318-46.3028Q101.636-42.2546 101.636-36.7225Q101.636-31.0296 97.6318-27.0164Q93.6278-23.0034 88.0074-23.0034ZM60.6167 20.209Q54.2578 20.209 50.9857 16.9408Q47.7135 13.6725 47.7135 7.36154L47.7135 6.41993L66.2377-10.5424Q68.0874-12.2868 69.8209-13.1229Q71.5545-13.9589 73.7555-13.9589Q76.0539-13.9589 77.9119-13.0866Q79.77-12.2144 81.6107-10.462L91.3923-1.43809L117.229-23.7482Q119.518-25.6536 121.645-26.6334Q123.773-27.6133 126.385-27.6133Q129.14-27.6133 131.419-26.5932Q133.699-25.573 135.827-23.6678L162.897 1.13258L162.897 7.36154Q162.897 13.6725 159.517 16.9408Q156.137 20.209 150.066 20.209ZM60.4558 24.0868L150.227 24.0868Q158.361 24.0868 162.604 19.8119Q166.847 15.537 166.847 7.50058L166.847-53.2003Q166.847-61.2457 162.604-65.5161Q158.361-69.7864 150.227-69.7864L60.4558-69.7864Q52.2495-69.7864 48.0427-65.5517Q43.8358-61.3171 43.8358-53.2003L43.8358 7.50058Q43.8358 15.69 48.0427 19.8884Q52.2495 24.0868 60.4558 24.0868ZM60.4558-75.0207L136.128-75.0207L136.128-77.815Q136.128-85.8605 131.921-90.1347Q127.714-94.409 119.507-94.409L32.704-94.409Q24.4976-94.409 20.2909-90.2066Q16.084-86.0044 16.084-77.815L16.084-17.1232Q16.084-8.9338 20.2909-4.7348Q24.4976-0.535811 32.704-0.535811L38.6016-0.535811L38.6016-53.2003Q38.6016-60.0812 41.2039-64.9524Q43.8063-69.8238 48.6822-72.4223Q53.5581-75.0207 60.4558-75.0207Z"/>
  </g>
  <g id="Ultralight-L" transform="matrix(1 0 0 1 468.905 1556)">
   <path d="M87.1024-23.3136Q81.4641-23.3136 77.479-27.3396Q73.4936-31.3659 73.4936-37.0846Q73.4936-42.6425 77.479-46.7101Q81.4641-50.7777 87.1024-50.7777Q92.7357-50.7777 96.7655-46.7101Q100.796-42.6425 100.796-37.0846Q100.796-31.3659 96.7655-27.3396Q92.7357-23.3136 87.1024-23.3136ZM59.1688 20.597Q52.4478 20.597 49.0141 17.1606Q45.5802 13.7242 45.5802 7.10305L45.5802 7.2345L65.0482-10.7233Q66.8979-12.5067 68.6251-13.3556Q70.3522-14.2045 72.6307-14.2045Q74.9808-14.2045 76.8259-13.3128Q78.6711-12.4212 80.5246-10.6429L90.2287-1.64487L116.156-23.9033Q118.509-25.8476 120.643-26.8661Q122.777-27.8848 125.454-27.8848Q128.299-27.8848 130.598-26.8259Q132.897-25.767 135.09-23.8229L162.949 1.54638L162.949 7.10305Q162.949 13.7242 159.388 17.1606Q155.827 20.597 149.446 20.597ZM59.0078 23.0912L149.607 23.0912Q157.352 23.0912 161.441 18.9585Q165.529 14.8258 165.529 7.15151L165.529-53.8209Q165.529-61.4914 161.441-65.626Q157.352-69.7605 149.607-69.7605L59.0078-69.7605Q51.1764-69.7605 47.1312-65.668Q43.0859-61.5755 43.0859-53.8209L43.0859 7.15151Q43.0859 14.9918 47.1312 19.0415Q51.1764 23.0912 59.0078 23.0912ZM59.0078-74.2451L135.054-74.2451L135.054-77.4401Q135.054-85.1106 131.009-89.2425Q126.964-93.3747 119.133-93.3747L32.0058-93.3747Q24.1744-93.3747 20.1293-89.3274Q16.084-85.2804 16.084-77.4401L16.084-16.4639Q16.084-8.6236 20.1293-4.5732Q24.1744-0.522771 32.0058-0.522771L38.6016-0.522771L38.6016-53.8209Q38.6016-60.2621 41.0358-64.8166Q43.47-69.3713 48.0228-71.8082Q52.5756-74.2451 59.0078-74.2451Z"/>
  </g>
  <g id="Black-M" transform="matrix(1 0 0 1 2854.99 1126)">
   <path d="M80.8992-21.1582Q76.8343-21.1582 73.927-24.0681Q71.0197-26.978 71.0197-31.0481Q71.0197-35.1078 73.927-37.989Q76.8343-40.8702 80.8992-40.8702Q84.9695-40.8702 87.8454-37.989Q90.7213-35.1078 90.7213-31.0481Q90.7213-26.978 87.8454-24.0681Q84.9695-21.1582 80.8992-21.1582ZM61.4618 3.46968Q59.2472 3.46968 58.1264 2.43732Q57.0057 1.40496 57.0057-0.997686L57.0057-4.83778L66.1233-13.2636Q67.2138-14.2181 68.499-14.6955Q69.7842-15.1729 71.039-15.1729Q72.3671-15.1729 73.6629-14.6957Q74.9587-14.2184 76.0435-13.2013L82.8731-7.0115L99.8707-22.0081Q101.136-23.0872 102.556-23.6211Q103.976-24.155 105.377-24.155Q106.948-24.155 108.316-23.6185Q109.683-23.082 110.881-22.0028L127.007-7.13944L127.007-0.997686Q127.007 1.40496 125.915 2.43732Q124.823 3.46968 122.55 3.46968ZM58.825 20.6937L125.187 20.6937Q134.256 20.6937 139.3 15.652Q144.345 10.6103 144.345 1.55821L144.345-46.3476Q144.345-55.4051 139.3-60.4442Q134.256-65.4831 125.187-65.4831L58.825-65.4831Q49.7568-65.4831 44.7122-60.444Q39.6675-55.4049 39.6675-46.3476L39.6675 1.55821Q39.6675 10.6153 44.7122 15.6545Q49.7568 20.6937 58.825 20.6937ZM58.825-74.6733L117.025-74.6733L117.025-74.701Q116.339-82.6738 111.409-87.0589Q106.478-91.444 97.9813-91.444L31.6184-91.444Q22.5504-91.444 17.5056-86.402Q12.4609-81.3601 12.4609-72.3029L12.4609-24.4027Q12.4609-15.6311 17.1631-10.6489Q21.8652-5.66681 30.3623-5.32431L30.4772-5.32431L30.4772-46.3476Q30.4772-54.9548 33.9931-61.301Q37.509-67.6471 43.8863-71.1602Q50.2638-74.6733 58.825-74.6733Z"/>
  </g>
  <g id="Heavy-M" transform="matrix(1 0 0 1 2559.52 1126)">
   <path d="M78.6451-21.9876Q74.5347-21.9876 71.5979-24.9338Q68.6611-27.8799 68.6611-32.0091Q68.6611-36.1008 71.5979-39.0262Q74.5347-41.9517 78.6451-41.9517Q82.7719-41.9517 85.6798-39.0262Q88.5878-36.1008 88.5878-32.0091Q88.5878-27.8799 85.6798-24.9338Q82.7719-21.9876 78.6451-21.9876ZM59.2351 4.15276Q56.6793 4.15276 55.3582 2.90525Q54.0371 1.65773 54.0371-1.07575L54.0371-5.06745L63.6109-13.7845Q64.7822-14.8006 66.0863-15.3075Q67.3905-15.8144 68.6875-15.8144Q70.0798-15.8144 71.4202-15.3063Q72.7605-14.7983 73.9153-13.7222L80.9856-7.3219L98.621-22.9011Q99.9531-24.0419 101.421-24.5969Q102.89-25.152 104.384-25.152Q106.014-25.152 107.459-24.5876Q108.905-24.0232 110.156-22.8824L126.774-7.46187L126.774-1.07575Q126.774 1.65773 125.472 2.90525Q124.169 4.15276 121.579 4.15276ZM57.1911 19.1628L123.623 19.1628Q132.358 19.1628 137.116 14.412Q141.874 9.66121 141.874 0.977132L141.874-46.4972Q141.874-55.1977 137.116-59.9404Q132.358-64.683 123.623-64.683L57.1911-64.683Q48.4532-64.683 43.6965-59.9415Q38.9398-55.2 38.9398-46.4972L38.9398 0.977132Q38.9398 9.68219 43.6965 14.4225Q48.4532 19.1628 57.1911 19.1628ZM57.1911-73.2802L115.182-73.2802L115.182-73.4815Q114.658-81.3532 109.989-85.6023Q105.319-89.8515 97.0178-89.8515L30.7123-89.8515Q21.9744-89.8515 17.2176-85.103Q12.4609-80.3545 12.4609-71.6494L12.4609-24.1914Q12.4609-15.7045 16.956-11.0077Q21.4509-6.31103 29.7526-6.04936L30.3425-6.04936L30.3425-46.4972Q30.3425-54.6941 33.6432-60.6947Q36.9439-66.6952 42.9744-69.9877Q49.005-73.2802 57.1911-73.2802Z"/>
  </g>
  <g id="Bold-M" transform="matrix(1 0 0 1 2264.19 1126)">
   <path d="M76.1236-22.9154Q71.9622-22.9154 68.9924-25.9021Q66.0226-28.8889 66.0226-33.084Q66.0226-37.2116 68.9924-40.1866Q71.9622-43.1615 76.1236-43.1615Q80.3135-43.1615 83.2573-40.1866Q86.2011-37.2116 86.2011-33.084Q86.2011-28.8889 83.2573-25.9021Q80.3135-22.9154 76.1236-22.9154ZM56.7442 4.91689Q53.8069 4.91689 52.2616 3.42869Q50.7162 1.94049 50.7162-1.16308L50.7162-5.32437L60.8003-14.3671Q62.062-15.4521 63.3874-15.9921Q64.7128-16.532 66.0571-16.532Q67.5211-16.532 68.9114-15.9895Q70.3016-15.447 71.5347-14.3048L78.8741-7.66913L97.2229-23.9001Q98.6296-25.1098 100.152-25.6885Q101.675-26.2672 103.274-26.2672Q104.969-26.2672 106.501-25.6716Q108.034-25.076 109.345-23.8663L126.515-7.82254L126.515-1.16308Q126.515 1.94049 124.976 3.42869Q123.437 4.91689 120.492 4.91689ZM55.3635 17.4503L121.872 17.4503Q130.236 17.4503 134.673 13.0249Q139.111 8.59947 139.111 0.327117L139.111-46.6647Q139.111-54.9657 134.673-59.3768Q130.236-63.7879 121.872-63.7879L55.3635-63.7879Q46.9949-63.7879 42.5603-59.3794Q38.1257-54.9708 38.1257-46.6647L38.1257 0.327117Q38.1257 8.63841 42.5603 13.0444Q46.9949 17.4503 55.3635 17.4503ZM55.3635-71.7219L113.121-71.7219L113.121-72.1173Q112.778-79.8759 108.401-83.973Q104.023-88.0701 95.94-88.0701L29.6986-88.0701Q21.3301-88.0701 16.8955-83.6498Q12.4609-79.2296 12.4609-70.9183L12.4609-23.9551Q12.4609-15.7866 16.7242-11.4091Q20.9875-7.03168 29.0706-6.86044L30.1917-6.86044L30.1917-46.6647Q30.1917-54.4026 33.2518-60.0165Q36.3118-65.6304 41.9543-68.6761Q47.5968-71.7219 55.3635-71.7219Z"/>
  </g>
  <g id="Semibold-M" transform="matrix(1 0 0 1 1968.43 1126)">
   <path d="M74.3853-23.555Q70.1888-23.555 67.1963-26.5697Q64.2037-29.5845 64.2037-33.8251Q64.2037-37.9774 67.1963-40.9865Q70.1888-43.9956 74.3853-43.9956Q78.6187-43.9956 81.5872-40.9865Q84.5558-37.9774 84.5558-33.8251Q84.5558-29.5845 81.5872-26.5697Q78.6187-23.555 74.3853-23.555ZM55.0269 5.44368Q51.8266 5.44368 50.1268 3.78955Q48.4269 2.13543 48.4269-1.22329L48.4269-5.50149L58.8628-14.7688Q60.1868-15.9013 61.5267-16.464Q62.8668-17.0267 64.2437-17.0267Q65.7571-17.0267 67.1818-16.4604Q68.6064-15.8942 69.8934-14.7065L77.4185-7.90851L96.2591-24.5888Q97.7172-25.846 99.2772-26.441Q100.837-27.036 102.508-27.036Q104.248-27.036 105.841-26.4189Q107.434-25.8018 108.786-24.5446L126.335-8.07119L126.335-1.22329Q126.335 2.13543 124.634 3.78955Q122.932 5.44368 119.742 5.44368ZM54.1035 16.2697L120.666 16.2697Q128.773 16.2697 132.989 12.0686Q137.205 7.86752 137.205-0.121L137.205-46.7801Q137.205-54.8057 132.989-58.9883Q128.773-63.1708 120.666-63.1708L54.1035-63.1708Q45.9895-63.1708 41.777-58.9919Q37.5645-54.8128 37.5645-46.7801L37.5645-0.121Q37.5645 7.91883 41.777 12.0943Q45.9895 16.2697 54.1035 16.2697ZM54.1035-70.6475L111.7-70.6475L111.7-71.1768Q111.482-78.8575 107.305-82.8497Q103.129-86.842 95.197-86.842L28.9999-86.842Q20.8859-86.842 16.6734-82.648Q12.4609-78.4542 12.4609-70.4143L12.4609-23.7922Q12.4609-15.8432 16.5645-11.6858Q20.668-7.5285 28.6004-7.41959L30.0878-7.41959L30.0878-46.7801Q30.0878-54.2016 32.9819-59.549Q35.8761-64.8963 41.251-67.7719Q46.626-70.6475 54.1035-70.6475Z"/>
  </g>
  <g id="Medium-M" transform="matrix(1 0 0 1 1672.44 1126)">
   <path d="M73.0672-24.04Q68.8441-24.04 65.8343-27.0759Q62.8245-30.1119 62.8245-34.387Q62.8245-38.558 65.8343-41.593Q68.8441-44.628 73.0672-44.628Q77.3337-44.628 80.3209-41.593Q83.3082-38.558 83.3082-34.387Q83.3082-30.1119 80.3209-27.0759Q77.3337-24.04 73.0672-24.04ZM53.7249 5.84311Q50.3251 5.84311 48.5081 4.06317Q46.691 2.28323 46.691-1.26894L46.691-5.63579L57.3936-15.0734Q58.7649-16.2419 60.1159-16.8219Q61.467-17.4018 62.8687-17.4018Q64.4196-17.4018 65.8704-16.8175Q67.3211-16.2332 68.649-15.0111L76.3148-8.09001L95.5283-25.111Q97.0254-26.4042 98.6137-27.0115Q100.202-27.619 101.928-27.619Q103.702-27.619 105.34-26.9855Q106.979-26.3521 108.362-25.0589L126.199-8.25973L126.199-1.26894Q126.199 2.28323 124.375 4.06317Q122.55 5.84311 119.174 5.84311ZM53.1481 15.3746L119.751 15.3746Q127.663 15.3746 131.712 11.3435Q135.761 7.31252 135.761-0.46078L135.761-46.8677Q135.761-54.6844 131.712-58.6937Q127.663-62.703 119.751-62.703L53.1481-62.703Q45.2272-62.703 41.1831-58.698Q37.139-54.6929 37.139-46.8677L37.139-0.46078Q37.139 7.37322 41.1831 11.3739Q45.2272 15.3746 53.1481 15.3746ZM53.1481-69.8329L110.622-69.8329L110.622-70.4638Q110.499-78.0853 106.475-81.998Q102.452-85.9108 94.6336-85.9108L28.47-85.9108Q20.5491-85.9108 16.505-81.8884Q12.4609-77.8662 12.4609-70.0321L12.4609-23.6687Q12.4609-15.8861 16.4434-11.8956Q20.4258-7.90521 28.2439-7.84356L30.009-7.84356L30.009-46.8677Q30.009-54.0491 32.7773-59.1945Q35.5456-64.3397 40.7178-67.0863Q45.8899-69.8329 53.1481-69.8329Z"/>
  </g>
  <g id="Regular-M" transform="matrix(1 0 0 1 1376.67 1126)">
   <path d="M71.348-24.6726Q67.0902-24.6726 64.0579-27.7362Q61.0255-30.7998 61.0255-35.1199Q61.0255-39.3154 64.0579-42.3841Q67.0902-45.4529 71.348-45.4529Q75.6575-45.4529 78.6692-42.3841Q81.681-39.3154 81.681-35.1199Q81.681-30.7998 78.6692-27.7362Q75.6575-24.6726 71.348-24.6726ZM52.0265 6.36411Q48.3666 6.36411 46.3967 4.42006Q44.4268 2.47602 44.4268-1.32848L44.4268-5.81096L55.4773-15.4707Q56.9103-16.6861 58.2758-17.2886Q59.6413-17.8911 61.0753-17.8911Q62.6751-17.8911 64.1599-17.2833Q65.6446-16.6755 67.0258-15.4084L74.8751-8.32676L94.5751-25.7922Q96.1231-27.1323 97.7483-27.7558Q99.3735-28.3794 101.171-28.3794Q102.989-28.3794 104.687-27.7246Q106.385-27.0699 107.809-25.7298L126.022-8.50564L126.022-1.32848Q126.022 2.47602 124.037 4.42006Q122.051 6.36411 118.433 6.36411ZM51.9019 14.2069L118.558 14.2069Q126.216 14.2069 130.046 10.3978Q133.876 6.58861 133.876-0.903972L133.876-46.9818Q133.876-54.5262 130.046-58.3095Q126.216-62.0927 118.558-62.0927L51.9019-62.0927Q44.2329-62.0927 40.4084-58.3147Q36.584-54.5367 36.584-46.9818L36.584-0.903972Q36.584 6.66155 40.4084 10.4342Q44.2329 14.2069 51.9019 14.2069ZM51.9019-68.7704L109.217-68.7704L109.217-69.5336Q109.217-77.0781 105.392-80.8871Q101.568-84.6962 93.8987-84.6962L27.7789-84.6962Q20.1098-84.6962 16.2854-80.8977Q12.4609-77.0992 12.4609-69.5336L12.4609-23.5076Q12.4609-15.9421 16.2854-12.1693Q20.1098-8.39656 27.7789-8.39656L29.9062-8.39656L29.9062-46.9818Q29.9062-53.8503 32.5104-58.7321Q35.1147-63.6137 40.0222-66.1921Q44.9298-68.7704 51.9019-68.7704Z"/>
  </g>
  <g id="Light-M" transform="matrix(1 0 0 1 1080.84 1126)">
   <path d="M70.1503-25.0832Q65.8583-25.0832 62.8089-28.164Q59.7595-31.2448 59.7595-35.5991Q59.7595-39.8288 62.8089-42.9232Q65.8583-46.0175 70.1503-46.0175Q74.4768-46.0175 77.5227-42.9232Q80.5687-39.8288 80.5687-35.5991Q80.5687-31.2448 77.5227-28.164Q74.4768-25.0832 70.1503-25.0832ZM50.1102 6.87755Q45.9709 6.87755 43.7872 4.711Q41.6034 2.54444 41.6034-1.67059L41.6034-4.7329L53.903-15.7101Q55.3361-16.9771 56.693-17.5967Q58.0501-18.2163 59.5867-18.2163Q61.2549-18.2163 62.7225-17.5827Q64.1902-16.9492 65.5884-15.6479L73.3351-8.60044L93.1549-25.9974Q94.7882-27.389 96.4221-28.0638Q98.056-28.7387 99.939-28.7387Q101.877-28.7387 103.601-28.0327Q105.325-27.3267 106.833-25.9351L126.091-7.95798L126.091-1.67059Q126.091 2.54444 123.866 4.711Q121.64 6.87755 117.612 6.87755ZM49.9856 12.8894L117.736 12.8894Q124.881 12.8894 128.506 9.26839Q132.131 5.64738 132.131-1.36596L132.131-47.8032Q132.131-54.8514 128.506-58.455Q124.881-62.0585 117.736-62.0585L49.9856-62.0585Q42.8127-62.0585 39.2022-58.4687Q35.5916-54.8788 35.5916-47.8032L35.5916-1.36596Q35.5916 5.73758 39.2022 9.31349Q42.8127 12.8894 49.9856 12.8894ZM49.9856-67.7438L107.797-67.7438L107.797-69.0374Q107.797-76.0857 104.186-79.7064Q100.575-83.3272 93.4025-83.3272L26.8549-83.3272Q19.6821-83.3272 16.0715-79.7341Q12.4609-76.141 12.4609-69.0374L12.4609-22.6351Q12.4609-15.5316 16.0715-11.9554Q19.6821-8.3793 26.8549-8.3793L29.9062-8.3793L29.9062-47.8032Q29.9062-54.0898 32.2879-58.5524Q34.6696-63.0149 39.1496-65.3794Q43.6295-67.7438 49.9856-67.7438Z"/>
  </g>
  <g id="Thin-M" transform="matrix(1 0 0 1 785.28 1126)">
   <path d="M68.5663-25.6261Q64.229-25.6261 61.1571-28.7297Q58.085-31.8334 58.085-36.2329Q58.085-40.5079 61.1571-43.6361Q64.229-46.7642 68.5663-46.7642Q72.9152-46.7642 76.0064-43.6361Q79.0976-40.5079 79.0976-36.2329Q79.0976-31.8334 76.0064-28.7297Q72.9152-25.6261 68.5663-25.6261ZM47.5756 7.55663Q42.8025 7.55663 40.336 5.09578Q37.8692 2.63494 37.8692-2.12305L37.8692-3.30708L51.8209-16.0268Q53.254-17.3619 54.5998-18.0041Q55.9455-18.6463 57.6179-18.6463Q59.3766-18.6463 60.8216-17.9787Q62.2666-17.3112 63.6873-15.9646L71.2983-8.9624L91.2766-26.2689Q93.0228-27.7286 94.6682-28.4712Q96.3134-29.214 98.3097-29.214Q100.406-29.214 102.164-28.4401Q103.922-27.6662 105.543-26.2066L126.181-7.23366L126.181-2.12305Q126.181 2.63494 123.639 5.09578Q121.097 7.55663 116.526 7.55663ZM47.451 11.1469L116.65 11.1469Q123.116 11.1469 126.469 7.77469Q129.822 4.40253 129.822-1.97697L129.822-48.8895Q129.822-55.2814 126.469-58.6473Q123.116-62.0132 116.65-62.0132L47.451-62.0132Q40.9344-62.0132 37.6068-58.6722Q34.279-55.3312 34.279-48.8895L34.279-1.97697Q34.279 4.51554 37.6068 7.83119Q40.9344 11.1469 47.451 11.1469ZM47.451-66.3861L105.918-66.3861L105.918-68.3812Q105.918-74.7732 102.59-78.1448Q99.2629-81.5166 92.7463-81.5166L25.6329-81.5166Q19.1163-81.5166 15.7886-78.1951Q12.4609-74.8737 12.4609-68.3812L12.4609-21.4811Q12.4609-14.9886 15.7886-11.6725Q19.1163-8.35648 25.6329-8.35648L29.9062-8.35648L29.9062-48.8895Q29.9062-54.4066 31.9936-58.3147Q34.081-62.2229 37.9954-64.3045Q41.9098-66.3861 47.451-66.3861Z"/>
  </g>
  <g id="Ultralight-M" transform="matrix(1 0 0 1 489.161 1126)">
   <path d="M67.755-25.9042Q63.3945-25.9042 60.311-29.0195Q57.2273-32.1348 57.2273-36.5576Q57.2273-40.8557 60.311-44.0012Q63.3945-47.1467 67.755-47.1467Q72.1154-47.1467 75.2297-44.0012Q78.3441-40.8557 78.3441-36.5576Q78.3441-32.1348 75.2297-29.0195Q72.1154-25.9042 67.755-25.9042ZM46.2775 7.90445Q41.1797 7.90445 38.5682 5.29287Q35.9566 2.68129 35.9566-2.3548L35.9566-2.57678L50.7545-16.189Q52.1876-17.5589 53.5276-18.2128Q54.8676-18.8666 56.6095-18.8666Q58.4146-18.8666 59.8479-18.1815Q61.2814-17.4967 62.7135-16.1268L70.2551-9.14779L90.3146-26.4079Q92.1186-27.9025 93.7698-28.6799Q95.4209-29.4575 97.4752-29.4575Q99.6523-29.4575 101.428-28.6488Q103.203-27.8401 104.882-26.3457L126.227-6.86267L126.227-2.3548Q126.227 2.68129 123.523 5.29287Q120.819 7.90445 115.969 7.90445ZM46.1528 10.2543L116.094 10.2543Q122.212 10.2543 125.426 7.00963Q128.64 3.76493 128.64-2.28993L128.64-49.4459Q128.64-55.5017 125.426-58.7459Q122.212-61.99 116.094-61.99L46.1528-61.99Q39.9723-61.99 36.7896-58.7765Q33.6067-55.563 33.6067-49.4459L33.6067-2.28993Q33.6067 3.88962 36.7896 7.07197Q39.9723 10.2543 46.1528 10.2543ZM46.1528-65.6907L104.956-65.6907L104.956-68.0451Q104.956-74.1009 101.773-77.345Q98.5906-80.5892 92.4101-80.5892L25.0069-80.5892Q18.8265-80.5892 15.6438-77.4069Q12.4609-74.2246 12.4609-68.0451L12.4609-20.8901Q12.4609-14.7105 15.6438-11.5277Q18.8265-8.34479 25.0069-8.34479L29.9062-8.34479L29.9062-49.4459Q29.9062-54.5688 31.8429-58.193Q33.7795-61.8173 37.4043-63.754Q41.029-65.6907 46.1528-65.6907Z"/>
  </g>
  <g id="Black-S" transform="matrix(1 0 0 1 2871.63 696)">
   <path d="M64.0137-23.9746Q60.8398-23.9746 58.5693-26.2451Q56.2988-28.5156 56.2988-31.6895Q56.2988-34.8633 58.5693-37.1094Q60.8398-39.3555 64.0137-39.3555Q67.1875-39.3555 69.4336-37.1094Q71.6797-34.8633 71.6797-31.6895Q71.6797-28.5156 69.4336-26.2451Q67.1875-23.9746 64.0137-23.9746ZM48.7305-5.07812Q47.0703-5.07812 46.2402-5.83496Q45.4102-6.5918 45.4102-8.39844L45.4102-11.2793L52.4902-17.8711Q53.3203-18.6035 54.3213-18.9697Q55.3223-19.3359 56.2988-19.3359Q57.3242-19.3359 58.3252-18.9697Q59.3262-18.6035 60.1562-17.8223L65.4297-13.0371L78.5645-24.6094Q79.541-25.4395 80.6396-25.8545Q81.7383-26.2695 82.8125-26.2695Q84.0332-26.2695 85.083-25.8545Q86.1328-25.4395 87.0605-24.6094L99.6094-13.0859L99.6094-8.39844Q99.6094-6.5918 98.8037-5.83496Q97.998-5.07812 96.2891-5.07812ZM46.4844 8.98438L98.5352 8.98438Q105.713 8.98438 109.741 4.95605Q113.77 0.927734 113.77-6.25L113.77-43.9453Q113.77-51.123 109.741-55.1514Q105.713-59.1797 98.5352-59.1797L46.4844-59.1797Q39.3066-59.1797 35.2783-55.1514Q31.25-51.123 31.25-43.9453L31.25-6.25Q31.25 0.927734 35.2783 4.95605Q39.3066 8.98438 46.4844 8.98438ZM46.4844-66.5039L92.1875-66.5039L92.1875-66.5039Q91.6016-72.7539 87.6709-76.2207Q83.7402-79.6875 77.0508-79.6875L25-79.6875Q17.8223-79.6875 13.7939-75.6592Q9.76562-71.6309 9.76562-64.4531L9.76562-26.7578Q9.76562-19.8242 13.501-15.8447Q17.2363-11.8652 23.9258-11.5723L23.9258-11.5723L23.9258-43.9453Q23.9258-50.7812 26.7334-55.835Q29.541-60.8887 34.6191-63.6963Q39.6973-66.5039 46.4844-66.5039Z"/>
  </g>
  <g id="Heavy-S" transform="matrix(1 0 0 1 2575.86 696)">
   <path d="M62.2389-24.6315Q59.0305-24.6315 56.7369-26.9308Q54.4434-29.2301 54.4434-32.4501Q54.4434-35.647 56.7369-37.9276Q59.0305-40.2083 62.2389-40.2083Q65.4588-40.2083 67.728-37.9276Q69.9971-35.647 69.9971-32.4501Q69.9971-29.2301 67.728-26.9308Q65.4588-24.6315 62.2389-24.6315ZM47.071-4.55952Q45.1803-4.55952 44.2061-5.47194Q43.2321-6.38436 43.2321-8.42149L43.2321-11.6135L50.5426-18.286Q51.4418-19.0645 52.4601-19.4537Q53.4784-19.843 54.4779-19.843Q55.5494-19.843 56.5908-19.4537Q57.6321-19.0645 58.5197-18.2372L64.0122-13.2676L77.6771-25.347Q78.6997-26.2232 79.8387-26.6497Q80.9777-27.0762 82.121-27.0762Q83.3763-27.0762 84.4895-26.6439Q85.6027-26.2116 86.565-25.3354L99.402-13.4316L99.402-8.42149Q99.402-6.38436 98.4464-5.47194Q97.4909-4.55952 95.5631-4.55952ZM45.332 7.84346L97.3021 7.84346Q104.261 7.84346 108.07 4.03986Q111.88 0.236267 111.88-6.68793L111.88-43.9684Q111.88-50.904 108.07-54.7019Q104.261-58.4997 97.3021-58.4997L45.332-58.4997Q38.3731-58.4997 34.5638-54.7019Q30.7545-50.904 30.7545-43.9684L30.7545-6.68793Q30.7545 0.247792 34.5638 4.04562Q38.3731 7.84346 45.332 7.84346ZM45.332-65.4436L90.793-65.4436L90.793-65.5243Q90.3454-71.7513 86.6106-75.1259Q82.8759-78.5005 76.2902-78.5005L24.3431-78.5005Q17.3844-78.5005 13.5749-74.6969Q9.76562-70.8933 9.76562-63.9576L9.76562-26.6886Q9.76562-19.9394 13.3512-16.1789Q16.9367-12.4184 23.5224-12.1946L23.8106-12.1946L23.8106-43.9684Q23.8106-50.5277 26.4626-55.3395Q29.1146-60.1511 33.9507-62.7974Q38.7868-65.4436 45.332-65.4436Z"/>
  </g>
  <g id="Bold-S" transform="matrix(1 0 0 1 2280.21 696)">
   <path d="M60.2539-25.3662Q57.0068-25.3662 54.6875-27.6977Q52.3682-30.0293 52.3682-33.3008Q52.3682-36.5234 54.6875-38.8428Q57.0068-41.1621 60.2539-41.1621Q63.5254-41.1621 65.8203-38.8428Q68.1153-36.5234 68.1153-33.3008Q68.1153-30.0293 65.8203-27.6977Q63.5254-25.3662 60.2539-25.3662ZM45.2149-3.97949Q43.0664-3.97949 41.9312-5.06592Q40.7959-6.15235 40.7959-8.44727L40.7959-11.9873L48.3643-18.75Q49.3408-19.5801 50.3784-19.9951Q51.416-20.4102 52.4414-20.4102Q53.5644-20.4102 54.6509-19.9951Q55.7373-19.5801 56.6894-18.7012L62.4268-13.5254L76.6846-26.1719Q77.7588-27.0996 78.9429-27.5391Q80.1269-27.9785 81.3477-27.9785Q82.6416-27.9785 83.8257-27.5269Q85.0097-27.0752 86.0107-26.1475L99.1699-13.8184L99.1699-8.44727Q99.1699-6.15235 98.0468-5.06592Q96.9238-3.97949 94.751-3.97949ZM44.043 6.56739L95.9228 6.56739Q102.637 6.56739 106.201 3.01513Q109.766-0.537108 109.766-7.17773L109.766-43.9941Q109.766-50.6592 106.201-54.1993Q102.637-57.7393 95.9228-57.7393L44.043-57.7393Q37.3291-57.7393 33.7646-54.1993Q30.2002-50.6592 30.2002-43.9941L30.2002-7.17773Q30.2002-0.512693 33.7646 3.02734Q37.3291 6.56739 44.043 6.56739ZM44.043-64.2578L89.2334-64.2578L89.2334-64.4287Q88.9404-70.6299 85.4248-73.9013Q81.9092-77.1728 75.4394-77.1728L23.6084-77.1728Q16.8945-77.1728 13.3301-73.6206Q9.76562-70.0684 9.76562-63.4033L9.76562-26.6113Q9.76562-20.0684 13.1836-16.5527Q16.6015-13.0371 23.0713-12.8906L23.6816-12.8906L23.6816-43.9941Q23.6816-50.2441 26.1597-54.7852Q28.6377-59.3262 33.2031-61.792Q37.7685-64.2578 44.043-64.2578Z"/>
  </g>
  <g id="Semibold-S" transform="matrix(1 0 0 1 1984.23 696)">
   <path d="M58.8853-25.8727Q55.6116-25.8727 53.2745-28.2265Q50.9374-30.5803 50.9374-33.8873Q50.9374-37.1277 53.2745-39.4738Q55.6116-41.8198 58.8853-41.8198Q62.1924-41.8198 64.5051-39.4738Q66.8178-37.1277 66.8178-33.8873Q66.8178-30.5803 64.5051-28.2265Q62.1924-25.8727 58.8853-25.8727ZM43.9352-3.57959Q41.609-3.57959 40.3627-4.78599Q39.1163-5.99238 39.1163-8.46504L39.1163-12.245L46.8624-19.0699Q47.8923-19.9355 48.9432-20.3683Q49.9942-20.8012 51.0373-20.8012Q52.1959-20.8012 53.3135-20.3683Q54.4309-19.9355 55.4276-19.0211L61.3337-13.7031L76.0003-26.7407Q77.1101-27.7039 78.3252-28.1522Q79.5404-28.6006 80.8144-28.6006Q82.1351-28.6006 83.368-28.1356Q84.601-27.6706 85.6286-26.7073L99.01-14.085L99.01-8.46504Q99.01-5.99238 97.7714-4.78599Q96.5328-3.57959 94.1911-3.57959ZM43.1543 5.6876L94.972 5.6876Q101.517 5.6876 104.912 2.30864Q108.309-1.07031 108.309-7.51543L108.309-44.0119Q108.309-50.4903 104.912-53.8527Q101.517-57.2149 94.972-57.2149L43.1543-57.2149Q36.6093-57.2149 33.2137-53.8527Q29.8181-50.4903 29.8181-44.0119L29.8181-7.51543Q29.8181-1.03701 33.2137 2.32529Q36.6093 5.6876 43.1543 5.6876ZM43.1543-63.4402L88.1581-63.4402L88.1581-63.6733Q87.9718-69.8568 84.6072-73.0571Q81.2426-76.2575 74.8529-76.2575L23.1019-76.2575Q16.5568-76.2575 13.1612-72.8785Q9.76562-69.4997 9.76562-63.0212L9.76562-26.558Q9.76562-20.1572 13.0681-16.8104Q16.3705-13.4637 22.7603-13.3705L23.5928-13.3705L23.5928-44.0119Q23.5928-50.0486 25.9508-54.4031Q28.3089-58.7574 32.6877-61.0988Q37.0665-63.4402 43.1543-63.4402Z"/>
  </g>
  <g id="Medium-S" transform="matrix(1 0 0 1 1688.07 696)">
   <path d="M57.8476-26.2568Q54.5537-26.2568 52.2031-28.6274Q49.8525-30.9981 49.8525-34.332Q49.8525-37.5859 52.2031-39.9522Q54.5537-42.3184 57.8476-42.3184Q61.1817-42.3184 63.5078-39.9522Q65.834-37.5859 65.834-34.332Q65.834-30.9981 63.5078-28.6274Q61.1817-26.2568 57.8476-26.2568ZM42.9648-3.27637Q40.5039-3.27637 39.1734-4.57373Q37.8427-5.87109 37.8427-8.47851L37.8427-12.4404L45.7236-19.3125Q46.7939-20.205 47.8549-20.6514Q48.916-21.0977 49.9727-21.0977Q51.1582-21.0977 52.2993-20.6514Q53.4404-20.205 54.4707-19.2637L60.5049-13.8379L75.4815-27.1719Q76.6182-28.1621 77.8569-28.6172Q79.0957-29.0723 80.4101-29.0723Q81.751-29.0723 83.021-28.5972Q84.291-28.122 85.3388-27.1318L98.8887-14.2871L98.8887-8.47851Q98.8887-5.87109 97.5625-4.57373Q96.2363-3.27637 93.7666-3.27637ZM42.4805 5.02051L94.2509 5.02051Q100.668 5.02051 103.935 1.77295Q107.203-1.47461 107.203-7.77149L107.203-44.0254Q107.203-50.3623 103.935-53.5899Q100.668-56.8174 94.2509-56.8174L42.4805-56.8174Q36.0635-56.8174 32.7959-53.5899Q29.5283-50.3623 29.5283-44.0254L29.5283-7.77149Q29.5283-1.43457 32.7959 1.79297Q36.0635 5.02051 42.4805 5.02051ZM42.4805-62.8203L87.3428-62.8203L87.3428-63.1006Q87.2373-69.2705 83.9873-72.417Q80.7373-75.5635 74.4082-75.5635L22.7178-75.5635Q16.3008-75.5635 13.0332-72.3159Q9.76562-69.0684 9.76562-62.7314L9.76562-26.5175Q9.76562-20.2246 12.9805-17.0058Q16.1953-13.7871 22.5244-13.7344L23.5254-13.7344L23.5254-44.0254Q23.5254-49.9004 25.7925-54.1133Q28.0596-58.3262 32.2969-60.5732Q36.5341-62.8203 42.4805-62.8203Z"/>
  </g>
  <g id="Regular-S" transform="matrix(1 0 0 1 1392.08 696)">
   <path d="M56.4941-26.7578Q53.1738-26.7578 50.8057-29.1504Q48.4375-31.543 48.4375-34.9121Q48.4375-38.1836 50.8057-40.5762Q53.1738-42.9688 56.4941-42.9688Q59.8633-42.9688 62.207-40.5762Q64.5508-38.1836 64.5508-34.9121Q64.5508-31.543 62.207-29.1504Q59.8633-26.7578 56.4941-26.7578ZM41.6992-2.88086Q39.0625-2.88086 37.6221-4.29688Q36.1816-5.71289 36.1816-8.49609L36.1816-12.6953L44.2383-19.6289Q45.3613-20.5566 46.4355-21.0205Q47.5098-21.4844 48.584-21.4844Q49.8047-21.4844 50.9766-21.0205Q52.1484-20.5566 53.2227-19.5801L59.4238-14.0137L74.8047-27.7344Q75.9766-28.7598 77.2461-29.2236Q78.5156-29.6875 79.8828-29.6875Q81.25-29.6875 82.5684-29.1992Q83.8867-28.7109 84.9609-27.6855L98.7305-14.5508L98.7305-8.49609Q98.7305-5.71289 97.29-4.29688Q95.8496-2.88086 93.2129-2.88086ZM41.6016 4.15039L93.3105 4.15039Q99.5605 4.15039 102.661 1.07422Q105.762-2.00195 105.762-8.10547L105.762-44.043Q105.762-50.1953 102.661-53.2471Q99.5605-56.2988 93.3105-56.2988L41.6016-56.2988Q35.3516-56.2988 32.251-53.2471Q29.1504-50.1953 29.1504-44.043L29.1504-8.10547Q29.1504-1.95312 32.251 1.09863Q35.3516 4.15039 41.6016 4.15039ZM41.6016-62.0117L86.2793-62.0117L86.2793-62.3535Q86.2793-68.5059 83.1787-71.582Q80.0781-74.6582 73.8281-74.6582L22.2168-74.6582Q15.9668-74.6582 12.8662-71.582Q9.76562-68.5059 9.76562-62.3535L9.76562-26.4648Q9.76562-20.3125 12.8662-17.2607Q15.9668-14.209 22.2168-14.209L23.4375-14.209L23.4375-44.043Q23.4375-49.707 25.5859-53.7354Q27.7344-57.7637 31.7871-59.8877Q35.8398-62.0117 41.6016-62.0117Z"/>
  </g>
  <g id="Light-S" transform="matrix(1 0 0 1 1096.14 696)">
   <path d="M55.4346-27.121Q52.0841-27.121 49.7008-29.5288Q47.3175-31.9367 47.3175-35.336Q47.3175-38.6378 49.7008-41.053Q52.0841-43.4683 55.4346-43.4683Q58.8188-43.4683 61.1928-41.053Q63.5669-38.6378 63.5669-35.336Q63.5669-31.9367 61.1928-29.5288Q58.8188-27.121 55.4346-27.121ZM40.004-2.42666Q36.9433-2.42666 35.3137-4.03951Q33.684-5.65236 33.684-8.79872L33.684-11.7416L42.8457-19.8407Q43.9687-20.814 45.0354-21.293Q46.1022-21.772 47.2672-21.772Q48.5484-21.772 49.7051-21.2854Q50.8618-20.7987 51.9511-19.7919L58.0615-14.2558L73.5484-27.916Q74.7958-28.9869 76.073-29.4961Q77.3501-30.0054 78.7931-30.0054Q80.2661-30.0054 81.6072-29.4717Q82.9483-28.938 84.098-27.8671L98.791-14.0663L98.791-8.79872Q98.791-5.65236 97.1387-4.03951Q95.4864-2.42666 92.4863-2.42666ZM39.9063 2.98487L92.5839 2.98487Q98.3797 2.98487 101.299 0.07515Q104.218-2.83457 104.218-8.51415L104.218-44.7696Q104.218-50.4829 101.299-53.3758Q98.3797-56.2685 92.5839-56.2685L39.9063-56.2685Q34.0953-56.2685 31.1839-53.3833Q28.2725-50.4979 28.2725-44.7696L28.2725-8.51415Q28.2725-2.77048 31.1839 0.10719Q34.0953 2.98487 39.9063 2.98487ZM39.9063-61.1036L85.023-61.1036L85.023-61.9146Q85.023-67.628 82.1116-70.5375Q79.2002-73.4472 73.3892-73.4472L21.3994-73.4472Q15.5884-73.4472 12.677-70.5527Q9.76562-67.6583 9.76562-61.9146L9.76562-25.693Q9.76562-19.9493 12.677-17.0715Q15.5884-14.1937 21.3994-14.1937L23.4375-14.1937L23.4375-44.7696Q23.4375-49.9189 25.3891-53.5764Q27.3407-57.234 31.0151-59.1688Q34.6896-61.1036 39.9063-61.1036Z"/>
  </g>
  <g id="Thin-S" transform="matrix(1 0 0 1 800.451 696)">
   <path d="M54.0334-27.6013Q50.6428-27.6013 48.2396-30.0293Q45.8362-32.4573 45.8362-35.8967Q45.8362-39.2385 48.2396-41.6837Q50.6428-44.1289 54.0334-44.1289Q57.4374-44.1289 59.8514-41.6837Q62.2655-39.2385 62.2655-35.8967Q62.2655-32.4573 59.8514-30.0293Q57.4374-27.6013 54.0334-27.6013ZM37.7619-1.82594Q34.1405-1.82594 32.2607-3.69913Q30.3807-5.57231 30.3807-9.19898L30.3807-10.4803L41.0038-20.1209Q42.1269-21.1544 43.1837-21.6534Q44.2405-22.1525 45.5255-22.1525Q46.8868-22.1525 48.0235-21.6357Q49.1602-21.119 50.2694-20.0721L56.2597-14.576L71.8868-28.1561Q73.2341-29.2873 74.5214-29.8565Q75.8086-30.4258 77.3518-30.4258Q78.9647-30.4258 80.3359-29.8321Q81.7072-29.2384 82.9568-28.1073L98.871-13.4256L98.871-9.19898Q98.871-5.57231 96.9386-3.69913Q95.0061-1.82594 91.5254-1.82594ZM37.6642 1.44338L91.623 1.44338Q96.8181 1.44338 99.4969-1.2462Q102.176-3.93578 102.176-9.05466L102.176-45.7305Q102.176-50.8634 99.4969-53.5459Q96.8181-56.2285 91.623-56.2285L37.6642-56.2285Q32.4337-56.2285 29.7726-53.5634Q27.1114-50.8982 27.1114-45.7305L27.1114-9.05466Q27.1114-3.85151 29.7726-1.20407Q32.4337 1.44338 37.6642 1.44338ZM37.6642-59.9025L83.3614-59.9025L83.3614-61.334Q83.3614-66.4669 80.7003-69.1561Q78.0392-71.8455 72.8086-71.8455L20.3184-71.8455Q15.0879-71.8455 12.4268-69.1913Q9.76562-66.5372 9.76562-61.334L9.76562-24.6722Q9.76562-19.469 12.4268-16.8213Q15.0879-14.1735 20.3184-14.1735L23.4375-14.1735L23.4375-45.7305Q23.4375-50.1991 25.1287-53.3662Q26.82-56.5334 29.9941-58.2179Q33.1683-59.9025 37.6642-59.9025Z"/>
  </g>
  <g id="Ultralight-S" transform="matrix(1 0 0 1 504.263 696)">
   <path d="M53.3157-27.8473Q49.9046-27.8473 47.4911-30.2856Q45.0775-32.724 45.0775-36.1839Q45.0775-39.5462 47.4911-42.0067Q49.9046-44.4672 53.3157-44.4672Q56.7299-44.4672 59.1644-42.0067Q61.599-39.5462 61.599-36.1839Q61.599-32.724 59.1644-30.2856Q56.7299-27.8473 53.3157-27.8473ZM36.6135-1.51825Q32.7049-1.51825 30.6969-3.52478Q28.6888-5.53131 28.6888-9.40399L28.6888-9.83429L40.0604-20.2644Q41.1835-21.3287 42.2352-21.838Q43.2869-22.3473 44.6335-22.3473Q46.0358-22.3473 47.1622-21.8151Q48.2887-21.283 49.408-20.2156L55.3368-14.74L71.0358-28.2791Q72.4342-29.4411 73.7267-30.0411Q75.0191-30.6412 76.6136-30.6412Q78.2982-30.6412 79.6848-30.0167Q81.0715-29.3922 82.3723-28.2303L98.912-13.0974L98.912-9.40399Q98.912-5.53131 96.8361-3.52478Q94.7601-1.51825 91.0332-1.51825ZM36.5158 0.653839L91.1308 0.653839Q96.0182 0.653839 98.5741-1.92299Q101.13-4.49982 101.13-9.33151L101.13-46.2227Q101.13-51.0582 98.5741-53.6331Q96.0182-56.208 91.1308-56.208L36.5158-56.208Q31.5826-56.208 29.0497-53.6556Q26.5167-51.1032 26.5167-46.2227L26.5167-9.33151Q26.5167-4.40521 29.0497-1.87569Q31.5826 0.653839 36.5158 0.653839ZM36.5158-59.2873L82.5104-59.2873L82.5104-61.0367Q82.5104-65.8722 79.9774-68.4486Q77.4445-71.0251 72.5113-71.0251L19.7647-71.0251Q14.8315-71.0251 12.2986-68.494Q9.76562-65.963 9.76562-61.0367L9.76562-24.1493Q9.76562-19.223 12.2986-16.6931Q14.8315-14.1632 19.7647-14.1632L23.4375-14.1632L23.4375-46.2227Q23.4375-50.3426 24.9954-53.2585Q26.5533-56.1745 29.4712-57.7309Q32.3891-59.2873 36.5158-59.2873Z"/>
  </g>
 </g>
</svg>
